<svg width="24" height="25" viewBox="0 0 24 25" fill="none" xmlns="http://www.w3.org/2000/svg">
<path d="M15.5 14.68H14.71L14.43 14.4148C15.41 13.2951 16 11.8414 16 10.26C16 6.73383 13.09 3.87556 9.5 3.87556C5.91 3.87556 3 6.73383 3 10.26C3 13.7862 5.91 16.6445 9.5 16.6445C11.11 16.6445 12.59 16.0649 13.73 15.1024L14 15.3774V16.1533L19 21.0546L20.49 19.5911L15.5 14.68ZM9.5 14.68C7.01 14.68 5 12.7057 5 10.26C5 7.81428 7.01 5.84001 9.5 5.84001C11.99 5.84001 14 7.81428 14 10.26C14 12.7057 11.99 14.68 9.5 14.68Z" fill="black"/>
</svg>
